<svg version="1.2" xmlns="http://www.w3.org/2000/svg" viewBox="0 0 217 48" width="217" height="48">
	<style>
		.s0 { fill: #022b21 } 
		.s1 { fill: #8fbca8 } 
		.s2 { fill: #f58219 } 
		.s3 { fill: #a5ccbb } 
		.s4 { fill: #73aca0 } 
	</style>
	<g>
		<g>
			<path fill-rule="evenodd" class="s0" d="m11.25 0h25.5c6.21 0 11.25 5.04 11.25 11.25v25.5c0 6.21-5.04 11.25-11.25 11.25h-25.5c-6.21 0-11.25-5.04-11.25-11.25v-25.5c0-6.21 5.04-11.25 11.25-11.25z"/>
			<path class="s1" d="m19.06 34.24c0 0-1.44 0.88 1 1.13 2.95 0.37 4.51 0.31 7.76-0.31 0 0 0.88 0.56 2.07 1-7.33 3.13-16.59-0.19-10.83-1.82zm-0.94-4.07c0 0-1.57 1.19 0.87 1.44 3.2 0.31 5.7 0.38 10.02-0.5 0 0 0.57 0.63 1.51 0.94-8.83 2.63-18.73 0.25-12.4-1.88zm17.28 7.14c0 0 1.06 0.88-1.19 1.57-4.2 1.25-17.6 1.62-21.35 0-1.32-0.57 1.19-1.38 2-1.51 0.82-0.18 1.25-0.18 1.25-0.18-1.44-1.01-9.58 2.06-4.13 2.94 14.97 2.45 27.3-1.06 23.42-2.81zm-15.66-11.4c0 0-6.82 1.63-2.44 2.19 1.88 0.25 5.57 0.19 9.02-0.06 2.82-0.25 5.64-0.75 5.64-0.75 0 0-1 0.44-1.69 0.87-6.96 1.82-20.29 1.01-16.47-0.87 3.25-1.57 5.94-1.38 5.94-1.38zm12.21 6.83c7.02-3.64 3.76-7.14 1.51-6.7-0.57 0.12-0.82 0.25-0.82 0.25 0 0 0.19-0.38 0.63-0.5 4.44-1.57 7.95 4.69-1.44 7.13 0 0 0.06-0.06 0.12-0.18zm-11.52 9.89c6.77 0.44 17.1-0.25 17.35-3.45 0 0-0.5 1.26-5.57 2.2-5.77 1.06-12.9 0.93-17.1 0.25 0 0 0.88 0.75 5.32 1z"/>
			<path id="Forma 3" class="s1" d="m133 62"/>
			<path class="s2" d="m27.69 5.25c0 0 3.88 3.94-3.69 9.89-6.08 4.82-1.38 7.58 0 10.71-3.57-3.19-6.14-6.01-4.39-8.64 2.58-3.88 9.65-5.76 8.08-11.96zm-2 17.97c1.81 2.07-0.5 3.95-0.5 3.95 0 0 4.63-2.38 2.5-5.33-1.94-2.82-3.44-4.19 4.7-8.89 0 0-12.84 3.19-6.7 10.27z"/>
		</g>
	</g>
	<g>
		<g>
			<path fill-rule="evenodd" class="s0" d="m67.5 0h25.5c6.21 0 11.25 5.04 11.25 11.25v25.5c0 6.21-5.04 11.25-11.25 11.25h-25.5c-6.21 0-11.25-5.04-11.25-11.25v-25.5c0-6.21 5.04-11.25 11.25-11.25z"/>
			<path class="s1" d="m68.87 40.11l3.67-2.22c0.71 1.26 1.36 2.32 2.9 2.32 1.49 0 2.42-0.58 2.42-2.84v-15.33h4.51v15.4c0 4.67-2.74 6.8-6.73 6.8-3.61 0-5.71-1.87-6.77-4.13z"/>
			<path class="s1" d="m84.82 39.63l3.67-2.13c0.97 1.58 2.23 2.74 4.45 2.74 1.87 0 3.06-0.93 3.06-2.22 0-1.55-1.22-2.1-3.28-3l-1.13-0.48c-3.26-1.39-5.42-3.13-5.42-6.8 0-3.38 2.58-5.96 6.61-5.96 2.87 0 4.93 1 6.41 3.61l-3.51 2.25c-0.77-1.38-1.61-1.93-2.9-1.93-1.32 0-2.16 0.84-2.16 1.93 0 1.36 0.84 1.9 2.77 2.74l1.13 0.49c3.83 1.64 5.99 3.31 5.99 7.08 0 4.06-3.19 6.29-7.47 6.29-4.19 0-6.9-2-8.22-4.61z"/>
			<path id="Forma 2" class="s1" d="m156 59"/>
		</g>
	</g>
	<g>
		<g>
			<path fill-rule="evenodd" class="s0" d="m123.75 0h25.5c6.21 0 11.25 5.04 11.25 11.25v25.5c0 6.21-5.04 11.25-11.25 11.25h-25.5c-6.21 0-11.25-5.04-11.25-11.25v-25.5c0-6.21 5.04-11.25 11.25-11.25z"/>
			<path class="s3" d="m121.5 7.13l1.61 18.11h20.76l-0.69 7.76-6.69 1.81-6.67-1.8-0.44-4.99h-6.02l0.86 9.61 12.27 3.41 12.28-3.41 1.65-18.38h-21.83l-0.55-6.14h22.91 0.01l0.54-5.98z"/>
			<path class="s4" d="m136.5 7.13h-15l1.61 18.11h13.39v-5.99h-7.91l-0.55-6.14h8.46z"/>
			<path class="s4" d="m136.5 34.81h-0.01l-6.67-1.8-0.44-4.99h-6.02l0.86 9.61 12.27 3.41h0.01z"/>
		</g>
	</g>
	<g>
		<g>
			<path fill-rule="evenodd" class="s0" d="m180 0h25.5c6.21 0 11.25 5.04 11.25 11.25v25.5c0 6.21-5.04 11.25-11.25 11.25h-25.5c-6.21 0-11.25-5.04-11.25-11.25v-25.5c0-6.21 5.04-11.25 11.25-11.25z"/>
			<path class="s4" d="m178.83 19.25l0.54 5.99h13.4v-5.99z"/>
			<path class="s4" d="m192.77 7.13h-0.02-15l0.54 5.98h14.48z"/>
			<path class="s4" d="m192.77 41.03v-6.23l-0.03 0.01-6.67-1.8-0.42-4.78h-3.25-2.77l0.84 9.4 12.27 3.41z"/>
			<path id="Forma 1" class="s4" d="m189-5"/>
			<path class="s3" d="m200.12 25.24l-0.69 7.76-6.68 1.81v6.23l12.28-3.41 0.09-1.01 1.4-15.76 0.15-1.61 1.08-12.12h-15v5.98h8.44l-0.55 6.14h-7.89v5.99z"/>
		</g>
	</g>
</svg>
